<svg width="22" height="16" viewBox="0 0 22 16" fill="none" xmlns="http://www.w3.org/2000/svg">
<path d="M21.5403 2.40958C21.2873 1.46112 20.5418 0.714135 19.5953 0.460636C17.8796 0 11 0 11 0C11 0 4.12044 0 2.40474 0.460636C1.45821 0.714175 0.71273 1.46112 0.459711 2.40958C0 4.12872 0 7.71556 0 7.71556C0 7.71556 0 11.3024 0.459711 13.0215C0.71273 13.97 1.45821 14.6859 2.40474 14.9394C4.12044 15.4 11 15.4 11 15.4C11 15.4 17.8796 15.4 19.5953 14.9394C20.5418 14.6859 21.2873 13.97 21.5403 13.0215C22 11.3024 22 7.71556 22 7.71556C22 7.71556 22 4.12872 21.5403 2.40958ZM8.74998 10.9721V4.45898L14.5 7.71564L8.74998 10.9721Z" fill="#00089E"/>
</svg>
