<svg width="12" height="18" viewBox="0 0 12 18" fill="none" xmlns="http://www.w3.org/2000/svg">
<path fill-rule="evenodd" clip-rule="evenodd" d="M1.83332 11.5002C1.83332 12.8117 2.4508 14.0466 3.49999 14.8335C4.22122 15.3744 5.09845 15.6668 5.99999 15.6668C6.90153 15.6668 7.77876 15.3744 8.49999 14.8335C9.54918 14.0466 10.1667 12.8117 10.1667 11.5002L10.1667 4.00016C10.1667 3.53992 10.5398 3.16683 11 3.16683C11.4602 3.16683 11.8333 3.53992 11.8333 4.00016L11.8333 11.5002C11.8333 13.3362 10.9689 15.0652 9.49999 16.1668C8.49026 16.9241 7.26215 17.3335 5.99999 17.3335C4.73783 17.3335 3.50972 16.9241 2.49999 16.1668C1.03112 15.0652 0.166656 13.3362 0.166656 11.5002L0.166656 4.8335C0.166656 2.53231 2.03214 0.666828 4.33332 0.666828C6.63451 0.666828 8.49999 2.53231 8.49999 4.83349L8.49999 11.6431C8.49999 12.3062 8.2366 12.9421 7.76776 13.4109C6.79145 14.3872 5.20853 14.3872 4.23222 13.4109C3.76338 12.9421 3.49999 12.3062 3.49999 11.6431L3.49999 4.83349C3.49999 4.37326 3.87309 4.00016 4.33332 4.00016C4.79356 4.00016 5.16666 4.37326 5.16666 4.83349L5.16666 11.6431C5.16666 11.8642 5.25445 12.0761 5.41073 12.2324C5.73617 12.5578 6.26381 12.5578 6.58925 12.2324C6.74553 12.0761 6.83332 11.8642 6.83332 11.6431L6.83332 4.83349C6.83332 3.45278 5.71403 2.33349 4.33332 2.33349C2.95261 2.3335 1.83332 3.45278 1.83332 4.8335L1.83332 11.5002Z" fill="#8B9199"/>
</svg>
